REM MD5 3129809eb24093957a624890d10fb3bc
FILE "Caesars Palace II (Europe).bin" BINARY
  TRACK 01 MODE2/2352
    INDEX 01 00:00:00
  TRACK 02 AUDIO
    INDEX 00 25:09:41
    INDEX 01 25:11:41
  TRACK 03 AUDIO
    INDEX 00 26:12:20
    INDEX 01 26:14:20
  TRACK 04 AUDIO
    INDEX 00 27:15:34
    INDEX 01 27:17:34
  TRACK 05 AUDIO
    INDEX 00 28:18:45
    INDEX 01 28:20:45
  TRACK 06 AUDIO
    INDEX 00 29:22:35
    INDEX 01 29:24:35
REM LEADOUT 32:53:34
